<svg id="Layer_1" data-name="Layer 1" xmlns="http://www.w3.org/2000/svg" xmlns:xlink="http://www.w3.org/1999/xlink" viewBox="0 0 256 256"><defs><style>.cls-1{fill:url(#New_Gradient_Swatch_1);}.cls-2{fill:#ab3231;}.cls-3{fill:none;}.cls-4{fill:#cc3e3e;}.cls-5{fill:#7f1f1f;}</style><linearGradient id="New_Gradient_Swatch_1" x1="14.08" y1="128" x2="242.08" y2="128" gradientUnits="userSpaceOnUse"><stop offset="0" stop-color="#ffe259"/><stop offset="1" stop-color="#ffa751"/></linearGradient></defs><title>favRecord</title><path class="cls-1" d="M128.08,14a114,114,0,1,0,114,114A114,114,0,0,0,128.08,14ZM32,124S28,90,57,59s62-29,62-29S88,37,62,63,32,124,32,124ZM78.85,78.13c21.36-22.83,45.66-21.36,45.66-21.36a95.81,95.81,0,0,0-42,24.3C63.39,100.23,60.44,126,60.44,126S57.5,101,78.85,78.13ZM81.08,128a47,47,0,1,1,47,47A47,47,0,0,1,81.08,128Zm53.73,68.2a95.81,95.81,0,0,0,42-24.3C195.93,152.75,198.88,127,198.88,127s2.95,25-18.41,47.87S134.81,196.2,134.81,196.2ZM202.32,194c-29,31-62,29-62,29s31-7,57-33,30-61,30-61S231.32,163,202.32,194Z"/><path class="cls-2" d="M44,125s3.54-31,26.56-54S121,41.78,121,41.78,91.78,40,66.11,67.46,44,125,44,125Z"/><path class="cls-2" d="M215.34,128s-3.54,31-26.56,54-50.46,29.22-50.46,29.22,29.22,1.77,54.89-25.67S215.34,128,215.34,128Z"/><path class="cls-2" d="M127.17,212.17s-31-3.54-54-26.56S44,135.15,44,135.15,42.18,164.36,69.63,190,127.17,212.17,127.17,212.17Z"/><path class="cls-3" d="M96.74,155.31c-6,2.62-5.63,15.19,3.09,15.39,3.58-.22,7.57-5.83,11.35-13.58C104.31,155.33,98.92,154.43,96.74,155.31Z"/><path class="cls-3" d="M122,128l2-7h0v0a11.8,11.8,0,0,0-7,6.55c-.93,4.37.71,6.7,2.71,7.93.85-2.56,1.63-5.07,2.35-7.47Z"/><path class="cls-3" d="M126.3,110a24.1,24.1,0,0,0-.65-4.63,8.59,8.59,0,0,0-.57-1.22c-8.09,8.63-15.46,16.84-14.92,20.36a34.65,34.65,0,0,0,7,18.31q.72-2,1.4-3.93c-4.7-2.72-6.39-9.33-5-12.26a18.28,18.28,0,0,1,11.55-11,20,20,0,0,0,.74-2.52A20.62,20.62,0,0,0,126.3,110Z"/><path class="cls-3" d="M140,78.51c0-2.51-2.68-11.78-5.32-11.64S127,75,126.53,79.76a21.27,21.27,0,0,0,.67,8.74l1.72,4.3C134.41,86.75,138.93,81.45,140,78.51Z"/><path class="cls-3" d="M124.83,136.85a18.56,18.56,0,0,0,8.83-2.58s-2.33,5.53-10,5.8c-.8,2.18-1.62,4.32-2.46,6.46a8,8,0,0,0,5.09,1.32c7.68-.85,16.29-8.93,14.49-17.39-1.34-6.87-6-10-10.84-10.35l-2.49,8.29C126.66,131.35,125.77,134.14,124.83,136.85Z"/><path class="cls-4" d="M125.88,113.13a13.82,13.82,0,0,0-.23-7.76,24.1,24.1,0,0,1,.65,4.63A20.62,20.62,0,0,1,125.88,113.13Z"/><path class="cls-4" d="M162.68,157.34c-2.59-.59-5.84,2.62-5.84,2.62s5.19,6.07,3.32,7.61c-11.51-2-25.26-7.81-37.56-12.36L121,159.93c18.3,5.62,40.47,14,44.42,13.91C167.11,173.55,165.26,161.17,162.68,157.34Z"/><path class="cls-4" d="M118.14,153.71l3.28,1.06-3-1.09,1-2.6a11.73,11.73,0,0,0,6,1.81c10.44-.1,20.56-12.9,20.57-22.51A15.57,15.57,0,0,0,131.53,115c-.21,0-.41,0-.61,0L125,116l.14-.35a18.28,18.28,0,0,0-11.55,11c-1.41,2.93.27,9.54,5,12.26q-.68,2-1.4,3.93c-3.74-4.6-7.51-11.65-8-18.31C109,121,117,112.78,125.08,104.15L125,104l4.93-4.93V99c7.61-8.1,14.61-15.82,15-19.6.94-8.59-7.92-18-10.11-18.11C130,61,122.44,73.91,121,79c-1,3.51,1.11,11.88,3,19.25-9.3,10.16-19,18.75-19.51,26.53-.47,6.52,4.45,16.89,10.8,23-.57,1.43-1.15,2.83-1.74,4.2l-.12,0-2.19,4.9-3.62-.77,2.24-5.2a41.43,41.43,0,0,0-10.9-1.83c-9.62.89-11.45,5.6-11.45,10.46s1.62,17.83,10.13,18c12.56-.14,18.54-18,18.54-18l.26-.69h0ZM124,98l-2-8,5-2,.2.5a21.27,21.27,0,0,1-.67-8.74C127,75,131.36,67.13,134,67s6,6,6,11.51c-1,3.49-5.54,8.24-11,14.3L129,93Zm-7,29.52a11.8,11.8,0,0,1,7-6.55v0l6-1,0,.11c4.88.37,9.51,3.48,10.84,10.35,1.81,8.46-6.81,16.54-14.49,17.39a8,8,0,0,1-5.09-1.32c.84-2.14,1.66-4.28,2.46-6.46,7.64-.27,10-5.8,10-5.8a18.56,18.56,0,0,1-8.83,2.58c.94-2.71,1.83-5.5,2.65-8.45L127,130c-2-2-2-3-4.93-2-.71,2.4-1.5,4.91-2.35,7.47C117.72,134.22,116.08,131.89,117,127.52ZM99.82,170.7c-8.71-.19-9.11-12.77-3.09-15.39,2.19-.88,7.58,0,14.44,1.81C107.39,164.86,103.4,170.47,99.82,170.7Z"/><polygon class="cls-5" points="129 93 128.92 92.81 127.2 88.5 127 88 122 90 124 98 129 93"/><path class="cls-5" d="M125,104l.08.15a8.59,8.59,0,0,1,.57,1.22,13.82,13.82,0,0,1,.23,7.76,20,20,0,0,1-.74,2.52L125,116l5.92-1H131c1-4,0-13-1-16l-.07.07Z"/><path class="cls-5" d="M122,128l.07,0c2.93-1,2.95,0,4.93,2l.48-1.6,2.49-8.29,0-.11-6,1h0Z"/><polygon class="cls-5" points="111.19 156.89 113.38 151.99 113.43 151.88 109.85 150.84 109.81 150.92 107.57 156.12 111.19 156.89"/><polygon class="cls-5" points="122.61 155.16 121.42 154.77 118.14 153.71 116.39 158.85 116.4 158.85 120.92 160.03 120.96 159.93 122.59 155.2 122.61 155.16"/></svg>